<svg width="28" height="15" viewBox="0 0 28 15" fill="none" xmlns="http://www.w3.org/2000/svg">
<path d="M16.5568 6.92045L15.6534 7.17614C15.5966 7.02557 15.5128 6.87926 15.402 6.73722C15.294 6.59233 15.1463 6.47301 14.9588 6.37926C14.7713 6.28551 14.5312 6.23864 14.2386 6.23864C13.8381 6.23864 13.5043 6.33097 13.2372 6.51562C12.973 6.69744 12.8409 6.92898 12.8409 7.21023C12.8409 7.46023 12.9318 7.65767 13.1136 7.80256C13.2955 7.94744 13.5795 8.06818 13.9659 8.16477L14.9375 8.40341C15.5227 8.54545 15.9588 8.76278 16.2457 9.0554C16.5327 9.34517 16.6761 9.71875 16.6761 10.1761C16.6761 10.5511 16.5682 10.8864 16.3523 11.1818C16.1392 11.4773 15.8409 11.7102 15.4574 11.8807C15.0739 12.0511 14.6278 12.1364 14.1193 12.1364C13.4517 12.1364 12.8991 11.9915 12.4616 11.7017C12.0241 11.4119 11.7472 10.9886 11.6307 10.4318L12.5852 10.1932C12.6761 10.5455 12.848 10.8097 13.1009 10.9858C13.3565 11.1619 13.6903 11.25 14.1023 11.25C14.571 11.25 14.9432 11.1506 15.2188 10.9517C15.4972 10.75 15.6364 10.5085 15.6364 10.2273C15.6364 10 15.5568 9.80966 15.3977 9.65625C15.2386 9.5 14.9943 9.38352 14.6648 9.30682L13.5739 9.05114C12.9744 8.90909 12.5341 8.68892 12.2528 8.39062C11.9744 8.08949 11.8352 7.71307 11.8352 7.26136C11.8352 6.89205 11.9389 6.56534 12.1463 6.28125C12.3565 5.99716 12.642 5.77415 13.0028 5.61222C13.3665 5.45028 13.7784 5.36932 14.2386 5.36932C14.8864 5.36932 15.3949 5.51136 15.7642 5.79545C16.1364 6.07955 16.4006 6.45455 16.5568 6.92045Z" fill="white"/>
<path d="M20.767 5.45455V6.30682H17.375V5.45455H20.767ZM18.3636 3.88636H19.3693V10.125C19.3693 10.4091 19.4105 10.6222 19.4929 10.7642C19.5781 10.9034 19.6861 10.9972 19.8168 11.0455C19.9503 11.0909 20.0909 11.1136 20.2386 11.1136C20.3494 11.1136 20.4403 11.108 20.5114 11.0966C20.5824 11.0824 20.6392 11.071 20.6818 11.0625L20.8864 11.9659C20.8182 11.9915 20.723 12.017 20.6009 12.0426C20.4787 12.071 20.3239 12.0852 20.1364 12.0852C19.8523 12.0852 19.5739 12.0241 19.3011 11.902C19.0313 11.7798 18.8068 11.5938 18.6278 11.3438C18.4517 11.0938 18.3636 10.7784 18.3636 10.3977V3.88636Z" fill="white"/>
<path d="M24.6648 12.1364C24.0341 12.1364 23.4901 11.9972 23.0327 11.7188C22.5781 11.4375 22.2273 11.0455 21.9801 10.5426C21.7358 10.0369 21.6136 9.44886 21.6136 8.77841C21.6136 8.10795 21.7358 7.51705 21.9801 7.00568C22.2273 6.49148 22.571 6.09091 23.0114 5.80398C23.4545 5.5142 23.9716 5.36932 24.5625 5.36932C24.9034 5.36932 25.2401 5.42614 25.5724 5.53977C25.9048 5.65341 26.2074 5.83807 26.4801 6.09375C26.7528 6.34659 26.9702 6.68182 27.1321 7.09943C27.294 7.51705 27.375 8.03125 27.375 8.64205V9.06818H22.3295V8.19886H26.3523C26.3523 7.82955 26.2784 7.5 26.1307 7.21023C25.9858 6.92045 25.7784 6.69176 25.5085 6.52415C25.2415 6.35653 24.9261 6.27273 24.5625 6.27273C24.1619 6.27273 23.8153 6.37216 23.5227 6.57102C23.233 6.76705 23.0099 7.02273 22.8537 7.33807C22.6974 7.65341 22.6193 7.99148 22.6193 8.35227V8.93182C22.6193 9.42614 22.7045 9.84517 22.875 10.1889C23.0483 10.5298 23.2884 10.7898 23.5952 10.9688C23.902 11.1449 24.2585 11.233 24.6648 11.233C24.929 11.233 25.1676 11.196 25.3807 11.1222C25.5966 11.0455 25.7827 10.9318 25.9389 10.7812C26.0952 10.6278 26.2159 10.4375 26.3011 10.2102L27.2727 10.483C27.1705 10.8125 26.9986 11.1023 26.7571 11.3523C26.5156 11.5994 26.2173 11.7926 25.8622 11.9318C25.5071 12.0682 25.108 12.1364 24.6648 12.1364Z" fill="white"/>
<path d="M9.84659 12.1534C9.43182 12.1534 9.0554 12.0753 8.71733 11.919C8.37926 11.7599 8.1108 11.5312 7.91193 11.233C7.71307 10.9318 7.61364 10.5682 7.61364 10.142C7.61364 9.76705 7.6875 9.46307 7.83523 9.23011C7.98295 8.99432 8.1804 8.80966 8.42756 8.67614C8.67472 8.54261 8.94744 8.44318 9.24574 8.37784C9.54688 8.30966 9.84943 8.25568 10.1534 8.21591C10.5511 8.16477 10.8736 8.12642 11.1207 8.10085C11.3707 8.07244 11.5526 8.02557 11.6662 7.96023C11.7827 7.89489 11.8409 7.78125 11.8409 7.61932V7.58523C11.8409 7.16477 11.7259 6.83807 11.4957 6.60511C11.2685 6.37216 10.9233 6.25568 10.4602 6.25568C9.98011 6.25568 9.60369 6.3608 9.33097 6.57102C9.05824 6.78125 8.86648 7.00568 8.75568 7.24432L7.80114 6.90341C7.97159 6.50568 8.19886 6.19602 8.48295 5.97443C8.76989 5.75 9.08239 5.59375 9.42045 5.50568C9.76136 5.41477 10.0966 5.36932 10.4261 5.36932C10.6364 5.36932 10.8778 5.39489 11.1506 5.44602C11.4261 5.49432 11.6918 5.59517 11.9474 5.74858C12.206 5.90199 12.4205 6.13352 12.5909 6.44318C12.7614 6.75284 12.8466 7.16761 12.8466 7.6875V12H11.8409V11.1136H11.7898C11.7216 11.2557 11.608 11.4077 11.4489 11.5696C11.2898 11.7315 11.0781 11.8693 10.8139 11.983C10.5497 12.0966 10.2273 12.1534 9.84659 12.1534ZM10 11.25C10.3977 11.25 10.733 11.1719 11.0057 11.0156C11.2813 10.8594 11.4886 10.6577 11.6278 10.4105C11.7699 10.1634 11.8409 9.90341 11.8409 9.63068V8.71023C11.7983 8.76136 11.7045 8.80824 11.5597 8.85085C11.4176 8.89062 11.2528 8.92614 11.0653 8.95739C10.8807 8.9858 10.7003 9.01136 10.5241 9.03409C10.3509 9.05398 10.2102 9.07102 10.1023 9.08523C9.84091 9.11932 9.59659 9.17472 9.36932 9.25142C9.14489 9.32528 8.96307 9.4375 8.82386 9.58807C8.6875 9.7358 8.61932 9.9375 8.61932 10.1932C8.61932 10.5426 8.74858 10.8068 9.0071 10.9858C9.26847 11.1619 9.59943 11.25 10 11.25Z" fill="white"/>
<path d="M0.920455 14.4545V5.45455H1.89205V6.49432H2.01136C2.08523 6.38068 2.1875 6.2358 2.31818 6.05966C2.4517 5.88068 2.64205 5.72159 2.8892 5.58239C3.1392 5.44034 3.47727 5.36932 3.90341 5.36932C4.45455 5.36932 4.94034 5.5071 5.3608 5.78267C5.78125 6.05824 6.10938 6.44886 6.34517 6.95455C6.58097 7.46023 6.69886 8.05682 6.69886 8.74432C6.69886 9.4375 6.58097 10.0384 6.34517 10.5469C6.10938 11.0526 5.78267 11.4446 5.36506 11.723C4.94744 11.9986 4.46591 12.1364 3.92045 12.1364C3.5 12.1364 3.16335 12.0668 2.91051 11.9276C2.65767 11.7855 2.46307 11.625 2.3267 11.446C2.19034 11.2642 2.08523 11.1136 2.01136 10.9943H1.92614V14.4545H0.920455ZM1.90909 8.72727C1.90909 9.22159 1.98153 9.65767 2.12642 10.0355C2.27131 10.4105 2.48295 10.7045 2.76136 10.9176C3.03977 11.1278 3.38068 11.233 3.78409 11.233C4.20455 11.233 4.5554 11.1222 4.83665 10.9006C5.12074 10.6761 5.33381 10.375 5.47585 9.99716C5.62074 9.61648 5.69318 9.19318 5.69318 8.72727C5.69318 8.26705 5.62216 7.85227 5.48011 7.48295C5.34091 7.1108 5.12926 6.81676 4.84517 6.60085C4.56392 6.3821 4.21023 6.27273 3.78409 6.27273C3.375 6.27273 3.03125 6.37642 2.75284 6.58381C2.47443 6.78835 2.2642 7.07528 2.12216 7.4446C1.98011 7.81108 1.90909 8.23864 1.90909 8.72727Z" fill="white"/>
</svg>
